# xmcd
#
# Track frame offsets: 
#        150
#        4148
#        25743
#        50413
#        80238
#        100618
#        130713
#        138968
#        164100
#        186613
#        205663
#        230613
#
# Disc length: 3390 seconds
#
# Revision: 7
# Processed by: cddbd v1.5.2PL0 Copyright (c) Steve Scherf et al.
# Submitted via: ExactAudioCopy v1.3
#
DISCID=a20d3c0c
DTITLE=Anri (杏里) - CIRCUIT of RAINBOW
DYEAR=1989
DGENRE=Pop
TTITLE0=THE BREAK OF DAWN (Instrumental Tune)
TTITLE1=CIRCUIT of RAINBOW
TTITLE2=Asian Girl
TTITLE3=Shoo-be Doo-be My Boy
TTITLE4=失恋ゲームが終るまで
TTITLE5=WHO KNOWS MY LONELINESS?
TTITLE6=Havana Beans (Dancin' Tune)
TTITLE7=Groove A・Go・Go
TTITLE8=P.S. 言葉にならない
TTITLE9=MISS YOU, MISS ME
TTITLE10=センチメンタルを捨てた人
TTITLE11=LOVERS ON VENUS
EXTD=YEAR: 1989
EXTT0=
EXTT1=
EXTT2=
EXTT3=
EXTT4=
EXTT5=
EXTT6=
EXTT7=
EXTT8=
EXTT9=
EXTT10=
EXTT11=
PLAYORDER=
